<svg viewBox="0 0 900 160" width="100%" height="auto" xmlns="http://www.w3.org/2000/svg">
  <defs>
    <linearGradient id="bg" x1="0%" y1="0%" x2="100%" y2="100%">
      <stop offset="0%" style="stop-color:#0a1f0a"/>
      <stop offset="50%" style="stop-color:#0f3320"/>
      <stop offset="100%" style="stop-color:#0a1f0a"/>
    </linearGradient>
    <linearGradient id="accent" x1="0%" y1="0%" x2="100%" y2="0%">
      <stop offset="0%" style="stop-color:#4caf82"/>
      <stop offset="100%" style="stop-color:#81c995"/>
    </linearGradient>
  </defs>

  <rect width="900" height="160" fill="url(#bg)" rx="12"/>

  <line x1="0" y1="40" x2="900" y2="40" stroke="#ffffff08" stroke-width="1"/>
  <line x1="0" y1="80" x2="900" y2="80" stroke="#ffffff08" stroke-width="1"/>
  <line x1="0" y1="120" x2="900" y2="120" stroke="#ffffff08" stroke-width="1"/>
  <line x1="180" y1="0" x2="180" y2="160" stroke="#ffffff08" stroke-width="1"/>
  <line x1="360" y1="0" x2="360" y2="160" stroke="#ffffff08" stroke-width="1"/>
  <line x1="540" y1="0" x2="540" y2="160" stroke="#ffffff08" stroke-width="1"/>
  <line x1="720" y1="0" x2="720" y2="160" stroke="#ffffff08" stroke-width="1"/>

  <rect x="48" y="48" width="3" height="64" fill="url(#accent)" rx="2"/>

  <text x="72" y="90" font-family="'Segoe UI', system-ui, sans-serif" font-size="42" font-weight="700" fill="#ffffff" letter-spacing="-1">MindCare</text>
  <text x="73" y="118" font-family="'Segoe UI', system-ui, sans-serif" font-size="15" fill="#81c995" letter-spacing="2" font-weight="400">AI-POWERED MENTAL WELLNESS ASSISTANT</text>

  <text x="820" y="88" font-family="'Segoe UI', system-ui, sans-serif" font-size="12" fill="#ffffff30" text-anchor="middle">Frontend</text>
  <text x="820" y="106" font-family="'Segoe UI', system-ui, sans-serif" font-size="12" fill="#ffffff30" text-anchor="middle">UI</text>

  <circle cx="820" cy="55" r="18" fill="none" stroke="#4caf8220" stroke-width="1.5"/>
  <circle cx="820" cy="55" r="10" fill="none" stroke="#4caf8240" stroke-width="1.5"/>
  <circle cx="820" cy="55" r="3" fill="#4caf82"/>
</svg>
